<svg width="226" height="214" viewBox="0 0 226 214" fill="none" xmlns="http://www.w3.org/2000/svg">
<path d="M113 2L104 19.5M113 2L122 19.5M113 2V35.4545M104 19.5L97 36.5L108.5 27.4772M104 19.5L108.5 27.4772M113 35.4545L105.5 61M113 35.4545L108.5 27.4772M113 35.4545L120.5 61M113 35.4545L117.5 27.4772M105.5 61L56.5 32.5M105.5 61H120.5M105.5 61V126M105.5 61L120.5 126M56.5 32.5L1.5 110L56.5 85.5M56.5 32.5V85.5M56.5 32.5L105.5 126M56.5 85.5L105.5 126M105.5 126L113 213.5L120.5 126M105.5 126H120.5M105.5 126L120.5 61M122 19.5L129 36.5L117.5 27.4772M122 19.5L117.5 27.4772M120.5 61L169.5 32.5M120.5 61V126M169.5 32.5L224.5 110L169.5 85.5M169.5 32.5V85.5M169.5 32.5L120.5 126M169.5 85.5L120.5 126" stroke="#fff" stroke-width="3px"/>
</svg>
